<svg width="62" height="78" viewBox="0 0 62 78" fill="none" xmlns="http://www.w3.org/2000/svg">
<g clip-path="url(#clip0_3013_2784)">
<path fill-rule="evenodd" clip-rule="evenodd" d="M43.9721 76.9916C43.4245 77.0637 42.9222 76.6782 42.8501 76.1307L41.676 67.2076C41.604 66.66 41.9894 66.1577 42.537 66.0857C43.0846 66.0136 43.5869 66.3991 43.6589 66.9466L44.6253 74.2905L45.3364 74.7949L52.6342 73.8346C53.1818 73.7625 53.6841 74.148 53.7561 74.6956C53.8282 75.2432 53.4427 75.7454 52.8951 75.8175L43.9721 76.9916ZM46.1747 70.9021C46.775 69.985 47.4348 68.9466 48.1294 67.8051L49.838 68.8447C49.131 70.0065 48.4594 71.0635 47.848 71.9975L46.1747 70.9021ZM49.9808 64.646C50.558 63.6223 51.1433 62.545 51.725 61.4228L53.5007 62.3431C52.9074 63.4877 52.3108 64.5857 51.723 65.6283L49.9808 64.646ZM53.3485 58.14C53.8594 57.054 54.3579 55.9383 54.8353 54.7993L56.6798 55.5725C56.1906 56.7397 55.6803 57.8815 55.1582 58.9914L53.3485 58.14ZM56.1657 51.4005C56.5791 50.2618 56.9646 49.1078 57.3143 47.9443L59.2297 48.5201C58.8683 49.7222 58.4709 50.9118 58.0457 52.083L56.1657 51.4005ZM58.2481 44.4342C58.5205 43.2499 58.7487 42.0628 58.925 40.8786L60.9032 41.1732C60.7186 42.4131 60.4803 43.6517 60.1972 44.8826L58.2481 44.4342ZM59.293 37.2943C59.3254 36.6933 59.3422 36.095 59.3422 35.4999C59.3422 34.8078 59.332 34.1299 59.3119 33.466L61.311 33.4055C61.3317 34.0901 61.3422 34.7882 61.3422 35.5C61.3422 36.1324 61.3244 36.7667 61.2901 37.402L59.293 37.2943ZM59.0636 29.5327C58.9294 28.1678 58.7483 26.8712 58.5238 25.6399L60.4913 25.2811C60.7262 26.5694 60.9147 27.9205 61.054 29.337L59.0636 29.5327ZM57.6343 21.8246C57.2555 20.5134 56.8196 19.2915 56.3327 18.1534L58.1715 17.3667C58.6923 18.584 59.1553 19.8836 59.5557 21.2696L57.6343 21.8246ZM54.5649 14.721C53.8683 13.5874 53.1087 12.5599 52.2951 11.6297L53.8004 10.3129C54.6889 11.3286 55.5147 12.4466 56.2689 13.6738L54.5649 14.721ZM49.5175 8.97455C48.5055 8.16788 47.436 7.46514 46.3191 6.85647L47.2761 5.10032C48.4903 5.762 49.6573 6.52837 50.7641 7.41064L49.5175 8.97455ZM42.7924 5.28704C41.5796 4.85504 40.3286 4.50858 39.0504 4.23811L39.4644 2.28143C40.8223 2.56875 42.1597 2.9386 43.4635 3.403L42.7924 5.28704ZM35.1883 3.64947C33.8906 3.52239 32.5788 3.4597 31.2637 3.45192L31.2755 1.45195C32.646 1.46006 34.0192 1.52541 35.3833 1.65899L35.1883 3.64947ZM27.3196 3.5838C25.9953 3.6773 24.6805 3.81703 23.3868 3.99278L23.1176 2.01098C24.4501 1.82996 25.8078 1.68556 27.1788 1.58877L27.3196 3.5838ZM19.4669 4.63976C18.131 4.89782 16.835 5.1853 15.5936 5.48906L15.1182 3.54636C16.3887 3.23551 17.7168 2.94087 19.0876 2.67606L19.4669 4.63976ZM11.7489 6.52303C10.3618 6.92932 9.08754 7.33825 7.95558 7.72352L7.31117 5.83018C8.46771 5.43655 9.76945 5.01879 11.1867 4.60367L11.7489 6.52303ZM2.42023 9.83347C2.42031 9.83343 2.42034 9.83342 2.01178 8.92069L1.6033 8.00792L1.6034 8.00788L1.60363 8.00777L1.60427 8.00748L1.60628 8.00659L1.61316 8.00353L1.63829 7.9924C1.66006 7.98278 1.69182 7.96882 1.73331 7.95076C1.81629 7.91464 1.93816 7.86211 2.09675 7.79513C2.41393 7.66117 2.87811 7.46935 3.47188 7.23535L4.20516 9.09608C3.62741 9.32377 3.17821 9.50943 2.8749 9.63754C2.72326 9.70159 2.6081 9.75123 2.53161 9.78453L2.44616 9.82197L2.42569 9.83103L2.42112 9.83307L2.42023 9.83347Z" fill="black"/>
</g>
<defs>
<clipPath id="clip0_3013_2784">
<rect width="62" height="78" fill="white"/>
</clipPath>
</defs>
</svg>
