<svg width="19" height="18" viewBox="0 0 19 18" fill="none" xmlns="http://www.w3.org/2000/svg">
<path d="M11.75 11.25H15.5C15.9142 11.25 16.25 10.9142 16.25 10.5V3C16.25 2.58579 15.9142 2.25 15.5 2.25L8 2.25C7.58579 2.25 7.25 2.58579 7.25 3L7.25 6.75" stroke="white" stroke-linecap="round" stroke-linejoin="round"/>
<path d="M3.5 15.75L11 15.75C11.4142 15.75 11.75 15.4142 11.75 15L11.75 7.5C11.75 7.08579 11.4142 6.75 11 6.75L3.5 6.75C3.08579 6.75 2.75 7.08579 2.75 7.5L2.75 15C2.75 15.4142 3.08579 15.75 3.5 15.75Z" stroke="white" stroke-linecap="round" stroke-linejoin="round"/>
</svg>
