<svg width="25" height="27" viewBox="0 0 25 27" fill="none" xmlns="http://www.w3.org/2000/svg">
<path d="M12.3333 16.7292V19.3125M5.875 10.9539C6.48392 10.9167 7.2346 10.9167 8.2 10.9167H16.4667C17.4321 10.9167 18.1828 10.9167 18.7917 10.9539M5.875 10.9539C5.11509 11.0002 4.57596 11.1046 4.11579 11.339C3.38666 11.7105 2.79386 12.3033 2.42235 13.0324C2 13.8614 2 14.9464 2 17.1167V18.925C2 21.0953 2 22.1803 2.42235 23.0092C2.79386 23.7384 3.38666 24.3311 4.11579 24.7026C4.94469 25.125 6.02979 25.125 8.2 25.125H16.4667C18.6369 25.125 19.7219 25.125 20.5509 24.7026C21.2801 24.3311 21.8728 23.7384 22.2443 23.0092C22.6667 22.1803 22.6667 21.0953 22.6667 18.925V17.1167C22.6667 14.9464 22.6667 13.8614 22.2443 13.0324C21.8728 12.3033 21.2801 11.7105 20.5509 11.339C20.0907 11.1046 19.5516 11.0002 18.7917 10.9539M5.875 10.9539V8.33333C5.875 4.7665 8.7665 1.875 12.3333 1.875C15.9001 1.875 18.7917 4.7665 18.7917 8.33333V10.9539" stroke="white" stroke-width="3" stroke-linecap="round" stroke-linejoin="round"/>
</svg>
