<svg width="39" height="34" viewBox="0 0 39 34" fill="none" xmlns="http://www.w3.org/2000/svg">
<path fill-rule="evenodd" clip-rule="evenodd" d="M35.9002 9.7002C35.8002 9.7002 35.7002 9.7002 35.6002 9.7002H30.9002C27.0002 9.7002 23.7002 12.9002 23.7002 17.0002C23.7002 21.1002 27.0002 24.3002 30.9002 24.3002H35.6002C35.7002 24.3002 35.8002 24.3002 35.9002 24.3002C37.5002 24.2002 38.9002 22.9002 39.0002 21.1002C39.0002 21.0002 39.0002 20.9002 39.0002 20.7002V13.3002C39.0002 13.2002 39.0002 13.1002 39.0002 12.9002C38.9002 11.1002 37.5002 9.8002 35.9002 9.7002ZM30.4002 18.9002C31.4002 18.9002 32.2002 18.0002 32.2002 17.0002C32.2002 15.9002 31.4002 15.1002 30.4002 15.1002C29.4002 15.1002 28.6002 16.0002 28.6002 17.0002C28.6002 18.1002 29.4002 18.9002 30.4002 18.9002Z" fill="black"/>
<path fill-rule="evenodd" clip-rule="evenodd" d="M35.6001 27.2C35.9001 27.2 36.1001 27.5 36.0001 27.7C35.6001 29.1 35.0001 30.3 34.1001 31.3C32.7001 32.8 30.9001 33.4 28.7001 33.7C26.6001 34 23.8001 34 20.4001 34H16.4001C12.9001 34 10.2001 34 8.1001 33.7C5.9001 33.4 4.1001 32.7 2.7001 31.3C1.3001 29.8 0.700101 28 0.400101 25.7C0.100101 23.5 0.100098 20.7 0.100098 17.1V16.9C0.100098 13.3 0.100101 10.5 0.400101 8.3C0.700101 6 1.3001 4.2 2.7001 2.7C4.0001 1.2 5.8001 0.6 8.0001 0.3C10.1001 -5.96046e-08 12.9001 0 16.3001 0H20.3001C23.8001 0 26.5001 -5.96046e-08 28.6001 0.3C30.8001 0.6 32.6001 1.3 34.0001 2.7C35.0001 3.7 35.6001 4.9 35.9001 6.3C36.0001 6.6 35.8001 6.8 35.5001 6.8H30.8001C25.5001 6.8 20.8001 11.2 20.8001 17C20.8001 22.8 25.5001 27.2 30.8001 27.2H35.6001ZM7.0001 7.8C6.2001 7.8 5.6001 8.5 5.6001 9.3C5.6001 10.1 6.2001 10.8 7.0001 10.8H14.5001C15.3001 10.8 15.9001 10.1 15.9001 9.3C15.9001 8.5 15.3001 7.8 14.5001 7.8H7.0001Z" fill="black"/>
</svg>
