<svg width="40" height="40" viewBox="0 0 40 40" fill="none" xmlns="http://www.w3.org/2000/svg">
<path d="M36.9 3.1C33.8 0 29.2 0 20 0C10.8 0 6.2 0 3.1 3.1C0 6.2 0 10.8 0 20C0 29.2 0 33.8 3.1 36.9C6.2 40 10.8 40 20 40C29.2 40 33.8 40 36.9 36.9C40 33.8 40 29.2 40 20C40 10.8 40 6.2 36.9 3.1ZM29.5 27C29.5 28.1 28.6 29 27.5 29H13.5C12.4 29 11.5 28.1 11.5 27V18.5C11.5 17.9 11.8 17.4 12.2 17L19.2 10.9C20 10.2 21.1 10.2 21.8 10.9L28.8 17C29.2 17.4 29.5 17.9 29.5 18.5V27ZM13.5 18.5V27H27.5V18.5L20.5 12.4L13.5 18.5Z" fill="black"/>
</svg>
