<svg width="40" height="40" viewBox="0 0 40 40" fill="none" xmlns="http://www.w3.org/2000/svg">
<path d="M26.3 19.9999C26.3 20.1999 26.3 20.5999 25.8 20.8999L17 25.5999C16.6 25.7999 16.2 25.6999 16 25.5999C15.9 25.4999 15.5 25.1999 15.5 24.6999V15.3999C15.5 14.8999 15.8 14.5999 16 14.4999C16.1 14.3999 16.3 14.3999 16.5 14.3999C16.6 14.3999 16.8 14.3999 17 14.4999L25.8 19.1999C26.2 19.3999 26.3 19.7999 26.3 19.9999Z" fill="black"/>
<path d="M36.9 3.1C33.8 0 29.2 0 20 0C10.8 0 6.20001 0 3.10001 3.1C6.19888e-06 6.2 0 10.8 0 20C0 29.2 6.19888e-06 33.8 3.10001 36.9C6.20001 40 10.8 40 20 40C29.2 40 33.8 40 36.9 36.9C40 33.8 40 29.2 40 20C40 10.8 40 6.2 36.9 3.1ZM26.7 22.6L17.9 27.3C17.5 27.5 17 27.7 16.5 27.7C16 27.7 15.4 27.6 15 27.3C14.1 26.8 13.5 25.8 13.5 24.7V15.4C13.5 14.3 14 13.4 15 12.8C15.9 12.3 17 12.2 17.9 12.7L26.7 17.4C27.7 17.9 28.3 18.9 28.3 20.1C28.3 21.3 27.6 22.1 26.7 22.6Z" fill="black"/>
</svg>
