<svg width="40" height="40" viewBox="0 0 40 40" fill="none" xmlns="http://www.w3.org/2000/svg">
<path d="M17.5 20C19.1569 20 20.5 18.6569 20.5 17C20.5 15.3431 19.1569 14 17.5 14C15.8431 14 14.5 15.3431 14.5 17C14.5 18.6569 15.8431 20 17.5 20Z" fill="black"/>
<path d="M36.9 3.1C33.8 0 29.2 0 20 0C10.8 0 6.20001 0 3.10001 3.1C6.19888e-06 6.2 0 10.8 0 20C0 29.2 6.19888e-06 33.8 3.10001 36.9C6.20001 40 10.8 40 20 40C29.2 40 33.8 40 36.9 36.9C40 33.8 40 29.2 40 20C40 10.8 40 6.2 36.9 3.1ZM23.5 12C26.3 12 28.5 14.2 28.5 17C28.5 19.8 26.3 22 23.5 22C23 22 22.5 21.5 22.5 21C22.5 20.4 23 20 23.5 20C25.2 20 26.5 18.7 26.5 17C26.5 15.3 25.2 14 23.5 14C23 14 22.5 13.5 22.5 13C22.5 12.4 23 12 23.5 12ZM17.5 12C20.3 12 22.5 14.2 22.5 17C22.5 19.8 20.3 22 17.5 22C14.7 22 12.5 19.7 12.5 17C12.5 14.2 14.7 12 17.5 12ZM23.5 29C23 29 22.5 28.5 22.5 28C22.5 26.4 20.2 25 17.5 25C14.8 25 12.5 26.4 12.5 28C12.5 28.5 12 29 11.5 29C11 29 10.5 28.5 10.5 28C10.5 25.2 13.6 23 17.5 23C21.4 23 24.5 25.2 24.5 28C24.5 28.5 24 29 23.5 29ZM29.5 29C29 29 28.5 28.5 28.5 28C28.5 26.8 27.2 25.7 25.3 25.2C24.8 25.1 24.4 24.5 24.6 24C24.7 23.5 25.3 23.1 25.8 23.3C28.7 24 30.6 25.9 30.6 28.1C30.5 28.5 30 29 29.5 29Z" fill="black"/>
</svg>
