<svg width="40" height="40" viewBox="0 0 40 40" fill="none" xmlns="http://www.w3.org/2000/svg">
<g clip-path="url(#clip0_1077_5474)">
<path fill-rule="evenodd" clip-rule="evenodd" d="M19.9219 0C14.6175 0 9.53047 2.10714 5.77974 5.85786C2.02901 9.60859 -0.078125 14.6957 -0.078125 20C-0.078125 23.9556 1.09485 27.8224 3.29248 31.1114C5.49011 34.4004 8.61368 36.9638 12.2682 38.4776C15.9227 39.9913 19.9441 40.3874 23.8237 39.6157C27.7033 38.844 31.267 36.9392 34.064 34.1421C36.8611 31.3451 38.7659 27.7814 39.5376 23.9018C40.3093 20.0222 39.9132 16.0009 38.3995 12.3463C36.8857 8.69181 34.3223 5.56824 31.0333 3.37061C28.0221 1.35858 24.5265 0.205432 20.9219 0.0250089C20.5894 0.00836608 20.2559 0 19.9219 0ZM19.9219 1C14.8828 1 10.05 3.00178 6.48685 6.56497C2.92366 10.1282 0.921875 14.9609 0.921875 20C0.921875 23.7578 2.03621 27.4313 4.12395 30.5558C6.2117 33.6804 9.17909 36.1156 12.6509 37.5537C16.1227 38.9918 19.943 39.368 23.6286 38.6349C27.3142 37.9018 30.6997 36.0922 33.3569 33.435C36.0141 30.7778 37.8237 27.3924 38.5568 23.7067C39.2899 20.0211 38.9137 16.2008 37.4756 12.729C36.0375 9.25722 33.6022 6.28982 30.4777 4.20208C27.3532 2.11433 23.6797 1 19.9219 1Z" fill="black"/>
<path d="M19.0332 22.5508C18.9225 22.5508 18.6491 22.528 18.2129 22.4824C18.1738 23.3939 18.1543 24.8913 18.1543 26.9746C18.1543 27.3197 18.0339 27.6159 17.793 27.8633C17.5521 28.1107 17.2461 28.2344 16.875 28.2344C16.5039 28.2344 16.1947 28.1107 15.9473 27.8633C15.7064 27.6159 15.5859 27.3197 15.5859 26.9746V24.25C15.5859 23.2409 15.651 21.7467 15.7812 19.7676C15.9049 17.7559 15.9701 16.2552 15.9766 15.2656C15.9831 13.5729 16.4583 12.7624 17.4023 12.834C17.6237 12.7754 17.9297 12.7331 18.3203 12.707C18.7109 12.6745 19.1862 12.6582 19.7461 12.6582C21.0221 12.6582 22.2201 13.0716 23.3398 13.8984C24.5833 14.8229 25.2051 15.9492 25.2051 17.2773C25.2051 18.944 24.5443 20.2689 23.2227 21.252C22.0508 22.1178 20.6543 22.5508 19.0332 22.5508ZM19.5215 15.1777C19.3132 15.1777 19.1276 15.181 18.9648 15.1875C18.8086 15.1875 18.6751 15.194 18.5645 15.207C18.5645 15.513 18.5612 15.972 18.5547 16.584C18.5417 17.3066 18.4798 18.4329 18.3691 19.9629C18.7012 20.015 18.9225 20.041 19.0332 20.041C20.0488 20.041 20.8919 19.8001 21.5625 19.3184C22.2786 18.804 22.6367 18.1237 22.6367 17.2773C22.6367 16.724 22.3014 16.2324 21.6309 15.8027C20.9863 15.3861 20.2832 15.1777 19.5215 15.1777Z" fill="black"/>
</g>
<defs>
<clipPath id="clip0_1077_5474">
<rect width="40" height="40" fill="white"/>
</clipPath>
</defs>
</svg>
