<svg width="36" height="36" viewBox="0 0 36 36" fill="none" xmlns="http://www.w3.org/2000/svg">
<rect x="0.5" y="0.5" width="35" height="35" rx="9.5" fill="#BA242D"/>
<rect x="0.5" y="0.5" width="35" height="35" rx="9.5" stroke="black"/>
<path d="M17.8743 26C17.8743 25.4713 17.9805 24.9354 18.0764 24.4172C18.1973 23.7643 18.1143 23.0768 18.1704 22.415C18.2377 21.6217 18.2331 20.8327 18.2331 20.0352C18.2331 18.7155 18.3356 17.3995 18.3356 16.0839C18.3356 15.7918 18.762 11 18.4637 11C18.1832 11 17.9376 11.2565 17.7461 11.4279C17.2797 11.8452 16.8025 12.2334 16.3365 12.6499C15.6588 13.2556 14.9955 13.8764 14.309 14.4732L14.3013 14.4799C13.9902 14.7503 13.6752 15.0241 13.3437 15.2701C13.2835 15.3148 12.9567 15.483 13.0048 15.5302M18.8482 11.0503C19.1867 11.0806 19.4658 11.3864 19.7195 11.5789C19.9174 11.729 20.1424 11.9032 20.272 12.1186C20.4467 12.409 20.5732 12.6675 20.8443 12.9072C21.0196 13.0621 21.109 13.2413 21.2686 13.4161C21.6372 13.8195 22.0003 14.113 22.14 14.6465C22.2812 15.1857 22.7047 15.498 23 15.9329" stroke="white" stroke-width="2" stroke-linecap="round"/>
</svg>
