<svg width="156" height="40" viewBox="0 0 156 40" fill="none" xmlns="http://www.w3.org/2000/svg">
<g clip-path="url(#clip0_1077_5390)">
<path d="M56.8937 16.2114H54.1113V34.4022H56.8937V16.2114Z" fill="black"/>
<path d="M69.3588 8.50586H46.6797V11.2919H69.3588V8.50586Z" fill="black"/>
<path d="M61.9211 16.2114H59.1387V34.4022H61.9211V16.2114Z" fill="black"/>
<path d="M138.787 34.4206H141.595V23.4647L138.787 20.3398V34.4206Z" fill="black"/>
<path d="M153.57 8.50562V28.8173L133.711 6.71729V34.4208H136.512V14.1028L156.384 36.2091V8.50562H153.57Z" fill="black"/>
<path d="M115.532 8.49316C108.395 8.49316 102.592 14.3037 102.592 21.4507C102.592 28.5978 108.395 34.4083 115.532 34.4083C122.67 34.4083 128.473 28.5978 128.473 21.4507C128.473 14.31 122.67 8.49316 115.532 8.49316ZM115.532 31.616C109.936 31.616 105.38 27.0605 105.38 21.4507C105.38 15.841 109.93 11.2855 115.532 11.2855C121.129 11.2855 125.684 15.841 125.684 21.4507C125.684 27.0542 121.129 31.616 115.532 31.616Z" fill="black"/>
<path d="M115.533 19.5869C114.505 19.5869 113.672 20.4215 113.672 21.4505C113.672 22.4796 114.505 23.3142 115.533 23.3142C116.561 23.3142 117.394 22.4796 117.394 21.4505C117.394 20.4215 116.561 19.5869 115.533 19.5869Z" fill="black"/>
<path d="M97.722 16.4557C97.722 12.0758 94.1876 8.51172 89.8448 8.51172H75.043V34.4269H77.8066V11.3229H89.8448C92.6335 11.3229 94.902 13.6257 94.902 16.4557C94.902 19.2731 92.6648 21.5634 89.9012 21.5948L80.0814 21.5885V34.4269H82.845V24.3997H89.3184L94.6075 34.4206H97.8223L92.3014 24.0043C95.4911 22.9439 97.722 19.8567 97.722 16.4557Z" fill="black"/>
<path d="M29.3793 5.55723L0 0L15.461 40L37 13.012L29.3793 5.55723ZM28.9107 8.00703L33.4069 12.3996L21.1143 14.6888L28.9107 8.00703ZM18.4439 14.2319L5.48727 3.18273L26.6601 7.18875L18.4439 14.2319ZM17.5163 16.1898L15.4073 34.1466L4.01781 4.66867L17.5163 16.1898ZM19.4691 17.1386L33.0798 14.6034L17.4724 34.1616L19.4691 17.1386Z" fill="black"/>
</g>
<defs>
<clipPath id="clip0_1077_5390">
<rect width="156" height="40" fill="white"/>
</clipPath>
</defs>
</svg>
