<svg width="40" height="40" viewBox="0 0 40 40" fill="none" xmlns="http://www.w3.org/2000/svg">
<g clip-path="url(#clip0_1077_5453)">
<rect width="40" height="40" fill="white"/>
<path fill-rule="evenodd" clip-rule="evenodd" d="M19.9219 0C23.8775 0 27.7443 1.17298 31.0333 3.37061C34.3223 5.56824 36.8857 8.69181 38.3995 12.3463C39.9132 16.0009 40.3093 20.0222 39.5376 23.9018C38.7659 27.7814 36.8611 31.3451 34.064 34.1421C31.267 36.9392 27.7033 38.844 23.8237 39.6157C19.9441 40.3874 15.9227 39.9913 12.2682 38.4776C8.61368 36.9638 5.49011 34.4004 3.29248 31.1114C1.09485 27.8224 -0.078125 23.9556 -0.078125 20C-0.078125 14.6957 2.02901 9.60859 5.77974 5.85786C9.53047 2.10714 14.6175 0 19.9219 0V0Z" fill="#BA242D"/>
<path d="M25.2927 12.7786L11 10L18.5216 30L29 16.506L25.2927 12.7786ZM25.0647 14.0035L27.252 16.1998L21.2718 17.3444L25.0647 14.0035ZM19.9727 17.116L13.6695 11.5914L23.9698 13.5944L19.9727 17.116ZM19.5214 18.0949L18.4954 27.0733L12.9546 12.3343L19.5214 18.0949ZM20.4714 18.5693L27.0929 17.3017L19.5001 27.0808L20.4714 18.5693Z" fill="white"/>
</g>
<defs>
<clipPath id="clip0_1077_5453">
<rect width="40" height="40" fill="white"/>
</clipPath>
</defs>
</svg>
