<svg width="18" height="18" viewBox="0 0 18 18" fill="none" xmlns="http://www.w3.org/2000/svg">
<rect width="18" height="18" rx="4" fill="#BA242D"/>
<path d="M9.18164 11.5498C8.99935 11.5498 8.84798 11.4928 8.72754 11.3789C8.61035 11.265 8.55176 11.1217 8.55176 10.9492C8.55176 10.8223 8.54688 10.6335 8.53711 10.3828C8.5306 10.1289 8.52734 9.93848 8.52734 9.81152C8.52734 9.3623 8.5306 8.68848 8.53711 7.79004C8.54688 6.8916 8.55176 6.21777 8.55176 5.76855C8.55176 5.59603 8.61198 5.4528 8.73242 5.33887C8.85286 5.22168 9.0026 5.16309 9.18164 5.16309C9.36068 5.16309 9.51042 5.22168 9.63086 5.33887C9.7513 5.4528 9.81152 5.59603 9.81152 5.76855V10.9492C9.81152 11.1217 9.7513 11.265 9.63086 11.3789C9.51367 11.4928 9.36393 11.5498 9.18164 11.5498ZM9.16699 13.3223C8.97168 13.3223 8.78939 13.2181 8.62012 13.0098C8.46712 12.8177 8.39062 12.6387 8.39062 12.4727C8.39062 12.3034 8.45736 12.1618 8.59082 12.0479C8.72428 11.9339 8.87565 11.877 9.04492 11.877C9.24023 11.877 9.4209 11.9811 9.58691 12.1895C9.73991 12.3815 9.81641 12.5589 9.81641 12.7217C9.81641 12.8877 9.74967 13.0293 9.61621 13.1465C9.486 13.2637 9.33626 13.3223 9.16699 13.3223Z" fill="white"/>
</svg>
