<svg width="41" height="41" viewBox="0 0 41 41" fill="none" xmlns="http://www.w3.org/2000/svg">
<path fill-rule="evenodd" clip-rule="evenodd" d="M20.2578 40.9289C16.0053 40.9289 12.1296 39.7985 9.0613 37.6274C5.688 35.2589 2.97859 31.7241 1.43548 27.669C0.520384 25.2825 0.0718065 23.1114 0.0718065 21.0838C0.0538634 18.9486 0.502441 16.8493 1.43548 14.8217C3.21185 10.8921 6.08275 7.33941 9.50988 4.80943C11.2504 3.51753 13.1164 2.56655 15.0543 1.93854C16.2206 1.56173 17.2792 1.34641 18.302 1.23876C18.3199 1.23876 18.3917 1.23876 18.4994 1.22081C19.5401 1.14904 19.6477 1.1311 19.6477 1.07727C19.6657 1.05932 19.7554 1.04138 20.0425 1.04138C20.3296 1.04138 20.6705 1.05932 20.832 1.07727H20.9038C23.5593 1.20287 25.551 1.5079 27.3633 2.08208C29.3191 2.71009 31.1493 3.67902 32.8 4.98887C34.2893 6.17311 35.6709 7.66239 37.0167 9.54641C38.2727 11.3048 39.2954 13.2248 40.0849 15.2344C40.5156 16.3469 40.7668 17.3696 40.8565 18.3744C40.9641 19.6125 41.018 20.7429 40.8206 21.8733C40.4438 23.883 39.7799 26.072 38.811 28.3867C37.537 31.4729 35.6171 35.3127 32.1361 37.735C29.2473 39.7447 25.4254 40.8033 20.7602 40.893C20.5808 40.9289 20.4193 40.9289 20.2578 40.9289Z" fill="white"/>
<path fill-rule="evenodd" clip-rule="evenodd" d="M19.5939 1.05932C19.5939 1.11315 18.4096 1.16698 18.284 1.18492C17.1716 1.29258 16.077 1.54379 15.0363 1.88471C13.0446 2.53066 11.1606 3.51753 9.47396 4.7556C5.993 7.33941 3.15799 10.8742 1.38162 14.8037C0.484464 16.7954 0 18.8948 0 21.0838C0 23.3447 0.574179 25.5875 1.36368 27.6869C2.8709 31.6523 5.54442 35.223 9.00744 37.6633C12.4346 40.0676 16.5794 41.0545 20.7422 40.9648C24.6897 40.8751 28.8525 40.0856 32.154 37.7889C35.4017 35.528 37.3755 31.9932 38.8468 28.4046C39.7081 26.3232 40.4438 24.1162 40.8565 21.8913C41.0718 20.725 40.9821 19.5587 40.8923 18.3924C40.8026 17.2978 40.5155 16.2571 40.1208 15.2523C39.3313 13.2427 38.2906 11.3228 37.0525 9.54641C35.8503 7.84182 34.4508 6.26282 32.8179 4.97092C31.1851 3.69696 29.337 2.69215 27.3632 2.04619C25.2639 1.3823 23.0748 1.13109 20.9037 1.02344C20.7781 1.02344 19.5939 0.951663 19.5939 1.05932ZM19.5221 1.40024C17.4048 1.56173 15.3055 2.01031 13.3676 2.87158C11.5374 3.67902 9.83282 4.79149 8.3256 6.10134C6.76455 7.42913 5.38293 8.93635 4.18074 10.6051C2.9965 12.2558 1.9558 14.0322 1.25602 15.9521C0.538293 17.9617 0.197374 20.1149 0.376805 22.2501C0.556236 24.3315 1.14836 26.3591 1.99168 28.2611C3.49891 31.7061 5.75974 34.8462 8.79212 37.0891C10.4249 38.2913 12.2551 39.2243 14.193 39.8164C16.2565 40.4444 18.4096 40.6598 20.5449 40.6239C22.698 40.588 24.8691 40.3188 26.9505 39.7626C28.8705 39.2423 30.7365 38.4707 32.3335 37.2685C35.3659 35.0077 37.2319 31.5447 38.6136 28.0996C39.0083 27.0948 39.3672 26.09 39.6902 25.0672C40.0131 24.0444 40.3182 23.0037 40.4976 21.9451C40.677 20.8685 40.6411 19.8099 40.5873 18.7333C40.5335 17.6746 40.2823 16.6698 39.9414 15.6471C39.2595 13.6913 38.2188 11.897 37.0705 10.1744C35.9042 8.45188 34.5584 6.85495 32.9615 5.50921C30.0906 3.08689 26.4123 1.7591 22.698 1.41818C21.6573 1.34641 20.5987 1.32847 19.5221 1.40024ZM20.2578 4.89915C18.4455 5.00681 16.6153 5.25801 14.8928 5.85013C13.2779 6.40637 11.7707 7.21381 10.3891 8.23657C9.04333 9.22344 7.82319 10.3897 6.87221 11.7714C5.90328 13.153 5.16761 14.714 4.64726 16.3289C3.60656 19.6484 3.66039 23.3088 4.8267 26.5924C5.88534 29.535 7.80525 32.2086 10.2814 34.1105C12.9908 36.1919 16.4538 37.5377 19.863 37.753C23.1466 37.9683 26.502 37.0711 29.2293 35.223C31.7952 33.4646 33.6972 30.8987 34.9891 28.0816C36.4245 24.9775 37.2499 21.4965 36.8372 18.0873C36.7834 17.6567 36.7116 17.2261 36.6398 16.7954C36.5681 16.3468 36.5142 15.8803 36.4066 15.4318C36.1912 14.5884 35.8144 13.781 35.3838 13.0274C34.5584 11.556 33.5357 10.2103 32.3335 9.02606C31.7234 8.416 31.0416 7.8777 30.3418 7.3753C29.6241 6.87289 28.8346 6.47814 28.0271 6.11928C26.4123 5.40155 24.6897 5.11446 22.9313 4.93503C22.07 4.86326 21.1729 4.84532 20.2578 4.89915ZM19.7554 5.22212C19.6118 5.31184 19.4324 5.25801 19.2709 5.25801C19.0376 5.25801 18.8044 5.31184 18.5711 5.32978C18.0867 5.38361 17.6022 5.45538 17.1357 5.5451C16.2385 5.72453 15.3772 5.97573 14.516 6.29871C12.919 6.90878 11.4298 7.78799 10.084 8.81074C7.62582 10.6948 5.88534 13.4221 4.97024 16.3827C3.96543 19.6663 4.00131 23.2729 5.14967 26.5206C6.20832 29.5171 8.16411 32.2086 10.73 34.0926C13.4394 36.0663 16.7409 37.3044 20.0963 37.4838C23.3978 37.6633 26.7352 36.7123 29.4088 34.7744C32.0284 32.8904 33.8945 30.1272 35.0967 27.1486C35.7786 25.444 36.2989 23.6856 36.5322 21.8733C36.6578 20.9403 36.7295 19.9893 36.6937 19.0383C36.6398 18.1232 36.5142 17.2081 36.3168 16.311C35.6709 13.2068 33.7151 10.5153 31.3466 8.50571C28.8166 6.35254 25.5689 5.32978 22.2853 5.22212C21.8368 5.20418 21.3882 5.20418 20.9396 5.20418C20.7243 5.20418 20.491 5.22212 20.2757 5.20418C20.1322 5.20418 19.9168 5.13241 19.7554 5.22212ZM20.3654 5.52716C20.3654 5.58099 20.2937 5.63481 20.2757 5.68864C20.2398 5.76042 20.2578 5.83219 20.2578 5.9219C20.2398 6.17311 20.2578 6.44225 20.2398 6.69346C20.2219 6.89083 20.2039 7.10615 20.2219 7.30352C20.2578 7.51884 20.4193 7.68033 20.5269 7.39324C20.6166 7.14204 20.5987 6.90878 20.7243 6.67552C20.8499 6.4602 21.0831 6.42431 21.1011 6.7114C21.119 6.90878 20.9575 7.26764 21.1011 7.42913C21.2805 7.66239 21.3882 7.19587 21.3882 7.08821C21.4061 6.80112 21.3882 6.15517 20.9934 6.15517C20.7961 6.15517 20.7961 6.37048 20.6346 6.40637C20.4731 6.44225 20.491 6.24488 20.491 6.13722C20.491 5.99368 20.5269 5.85013 20.5269 5.70659C20.5269 5.63481 20.5269 5.59893 20.491 5.5451C20.4551 5.5451 20.3654 5.45538 20.3654 5.52716ZM23.5952 5.76042C23.4875 6.17311 23.5055 6.60374 23.4337 7.01643C23.4158 7.14204 23.2004 7.64444 23.4516 7.68033C23.6311 7.69827 23.7926 7.39324 23.8643 7.26764C23.954 7.14204 24.0796 6.81906 24.2591 6.80112C24.6 6.78317 24.4206 7.41118 24.4565 7.57267C24.4923 7.71622 24.5821 7.80593 24.6897 7.68033C24.7794 7.59061 24.7794 7.41118 24.7794 7.30352C24.7794 7.03438 24.7256 6.65757 24.4565 6.53197C24.3129 6.4602 24.1514 6.51403 24.0258 6.62169C23.9361 6.7114 23.8643 6.89083 23.7208 6.89083C23.7567 6.89083 23.7746 6.42431 23.7746 6.35254C23.7926 6.19105 23.8643 6.02956 23.7926 5.86808C23.7567 5.7963 23.6311 5.59893 23.5952 5.76042ZM18.6429 5.77836C18.6429 5.83219 18.5532 5.86808 18.5173 5.93985C18.4993 6.01162 18.5173 6.10134 18.5173 6.17311C18.5352 6.40637 18.5711 6.63963 18.5532 6.87289C18.5532 7.10615 18.4635 7.44707 18.607 7.64444C18.8941 8.03919 19.0017 6.89083 19.1094 6.78317C19.3427 6.51403 19.4324 6.94466 19.4503 7.10615C19.4503 7.23175 19.4503 7.77004 19.7015 7.66239C20.0425 7.51884 19.6656 6.56786 19.4683 6.42431C19.3606 6.35254 19.253 6.35254 19.1453 6.42431C19.0735 6.47814 18.9659 6.65757 18.8582 6.63963C18.7147 6.62169 18.7864 6.29871 18.7864 6.20899C18.7864 6.11928 18.8223 5.95779 18.7685 5.88602C18.7685 5.85013 18.6429 5.77836 18.6429 5.77836ZM22.2853 6.08339C22.2853 6.13722 22.1059 6.19105 22.0521 6.22694C21.9265 6.31665 21.8368 6.4602 21.8726 6.62169C21.9444 6.89083 22.3033 6.89083 22.5007 6.98055C22.8416 7.12409 22.6621 7.41118 22.3392 7.35735C22.2315 7.33941 22.0162 7.21381 21.9085 7.30352C21.8009 7.39324 21.9265 7.5009 21.9982 7.55473C22.3212 7.77004 23.1825 7.64444 23.0031 7.10615C22.9133 6.85495 22.6621 6.78317 22.4289 6.7114C22.2853 6.67551 21.9982 6.60374 22.1597 6.42431C22.3033 6.26282 22.4289 6.38843 22.5904 6.44225C22.698 6.47814 22.8416 6.44225 22.7698 6.29871C22.7698 6.19105 22.2853 6.01162 22.2853 6.08339ZM16.3282 6.19105C16.2206 6.29871 16.3282 6.47814 16.3641 6.60374C16.4179 6.80112 16.4538 7.03438 16.4718 7.24969C16.4897 7.46501 16.4179 7.80593 16.5615 7.98536C16.7589 8.21862 16.8306 7.8777 16.8486 7.73416C16.8665 7.53678 16.8486 7.35735 16.9204 7.15998C17.0639 6.85495 17.2433 6.92672 17.333 7.23175C17.3689 7.32147 17.5304 8.18274 17.7457 7.85976C17.961 7.51884 17.5663 6.65757 17.1716 6.62169C16.9024 6.60374 16.705 7.08821 16.6153 6.63963C16.6153 6.51403 16.5256 5.97573 16.3282 6.19105ZM14.6057 6.81906C14.4083 7.14204 14.7133 7.66239 14.7672 8.00331C14.7851 8.12891 14.8748 8.88252 15.126 8.77486C15.2875 8.70309 15.2158 8.25451 15.2337 8.12891C15.2337 7.96742 15.2158 7.59061 15.4311 7.53678C15.7002 7.46501 15.7361 7.91359 15.754 8.07508C15.772 8.18274 15.772 8.34422 15.8617 8.416C16.0053 8.5416 16.095 8.416 16.095 8.27245C16.1129 7.94948 15.9873 7.5009 15.7182 7.32147C15.5567 7.21381 15.3593 7.19587 15.2158 7.32147C15.126 7.39324 14.9646 7.55473 15.0363 7.68033C14.9107 7.48296 14.9287 7.23175 14.8569 7.01643C14.821 6.90878 14.7133 6.65757 14.6057 6.81906ZM27.2915 6.85495C27.2915 7.03438 27.1838 7.21381 27.13 7.3753C27.0761 7.57267 27.0223 7.77004 26.9505 7.94948C26.8967 8.07508 26.484 8.64926 26.7711 8.75692C26.9505 8.82869 27.112 8.39805 27.1838 8.29039C27.2735 8.12891 27.5247 7.77004 27.758 7.96742C28.0451 8.20068 27.5068 8.75692 27.5427 9.04401C27.5786 9.33109 27.8298 9.07989 27.9015 8.95429C28.0451 8.70309 28.1527 8.36217 28.0989 8.07508C28.063 7.89565 27.9554 7.73416 27.758 7.69827C27.6324 7.68033 27.3991 7.78799 27.3453 7.6265C27.2915 7.46501 27.4709 7.23175 27.5068 7.07026C27.5247 6.99849 27.5247 6.90878 27.453 6.85495C27.4171 6.81906 27.2915 6.78317 27.2915 6.85495ZM25.9816 6.92672C25.9816 7.03438 25.8201 7.08821 25.7842 7.17792C25.7125 7.32147 25.8201 7.48295 25.9278 7.57267C26.0534 7.68033 26.3764 7.85976 26.3405 8.07508C26.3225 8.20068 26.161 8.23657 26.0534 8.21862C25.874 8.20068 25.7663 8.07508 25.7304 7.91359C25.6945 7.80593 25.6586 7.60856 25.4972 7.68033C25.3536 7.73416 25.4074 8.00331 25.4433 8.09302C25.6228 8.5416 26.502 8.63131 26.5737 8.07508C26.6276 7.7521 26.3225 7.59061 26.1072 7.41118C26.0534 7.35735 25.9278 7.23175 26.0354 7.15998C26.1431 7.08821 26.2867 7.24969 26.3584 7.32147C26.4481 7.39324 26.6096 7.55473 26.6455 7.35735C26.6635 7.24969 26.5917 7.12409 26.5199 7.07026C26.484 7.03438 25.9816 6.78317 25.9816 6.92672ZM13.2779 7.57267C13.0088 7.64444 12.9729 7.96742 13.1344 8.16479C13.242 8.30834 13.4214 8.34422 13.5829 8.34422C13.7085 8.34422 13.888 8.25451 14.0136 8.29039C14.3724 8.416 13.9777 8.82869 13.7803 8.90046C13.6726 8.93635 13.4932 8.9184 13.4214 9.02606C13.3317 9.16961 13.5112 9.24138 13.6188 9.25932C13.9956 9.31315 14.3007 8.93635 14.3545 8.59543C14.4083 8.14685 14.0495 8.05713 13.6906 8.07508C13.5829 8.07508 13.1164 8.09302 13.2958 7.8777C13.3497 7.80593 13.5112 7.84182 13.547 7.7521C13.6188 7.55473 13.3676 7.53678 13.2779 7.57267ZM11.7348 8.32628C11.4656 8.48777 11.2862 8.95429 11.5733 9.18755C11.8783 9.42081 12.1834 9.06195 12.4884 9.06195C12.8293 9.07989 12.8293 9.4567 12.5781 9.60024C12.4884 9.65407 12.3269 9.65407 12.2551 9.74379C12.1475 9.86939 12.2551 9.97705 12.3987 9.97705C12.7396 10.0129 13.0805 9.63613 13.0626 9.31315C13.0626 8.9184 12.7037 8.73897 12.3449 8.82869C12.1834 8.86457 12.0219 9.00812 11.8604 8.99018C11.6451 8.97223 11.663 8.75692 11.7886 8.63131C11.8604 8.55954 12.0578 8.52366 12.0578 8.416C12.0937 8.25451 11.8066 8.27245 11.7348 8.32628ZM30.4315 8.70309C30.3059 8.84663 30.27 9.02606 30.1982 9.18755C30.1265 9.38492 30.0188 9.56436 29.9112 9.74379C29.8035 9.92322 29.7138 10.1026 29.5882 10.2821C29.5164 10.3718 29.337 10.5692 29.4267 10.6948C29.642 11.0357 30.288 9.86939 30.593 10.2283C30.7186 10.3897 30.4674 10.6589 30.3597 10.7845C30.27 10.8921 30.1265 11.0357 30.1444 11.1972C30.1624 11.3587 30.288 11.3587 30.3956 11.269C30.6827 11.0716 31.2748 9.97705 30.5751 9.92322C30.4674 9.90527 30.1624 10.0847 30.0906 9.97705C30.0188 9.88733 30.1803 9.72584 30.2162 9.65407C30.3238 9.47464 30.4136 9.27727 30.5033 9.07989C30.5392 9.00812 30.6109 8.90046 30.593 8.81074C30.6109 8.68514 30.5033 8.61337 30.4315 8.70309ZM28.8884 8.70309C28.8884 8.82869 28.709 8.88252 28.691 9.00812C28.6731 9.15166 28.7807 9.29521 28.8705 9.40287C28.9781 9.52847 29.2293 9.79762 28.9961 9.92322C28.7628 10.0488 28.6193 9.81556 28.5475 9.63613C28.5116 9.54641 28.4937 9.43875 28.4398 9.36698C28.3322 9.22344 28.2066 9.27727 28.1886 9.4567C28.081 10.1924 29.4088 10.5153 29.3908 9.79762C29.3908 9.52847 29.1217 9.42081 29.014 9.20549C28.8705 8.90046 29.1755 8.95429 29.319 9.11578C29.3729 9.16961 29.4446 9.34904 29.5523 9.3311C29.7317 9.31315 29.642 9.07989 29.5882 8.99018C29.4985 8.82869 29.3549 8.73897 29.1934 8.68514C29.1396 8.68514 28.8884 8.63131 28.8884 8.70309ZM10.6941 9.47464C10.6403 9.56436 10.4967 9.56436 10.4249 9.61818C10.3173 9.7079 10.2455 9.85145 10.2276 9.97705C10.1917 10.2641 10.407 10.4077 10.6582 10.3897C10.8556 10.3718 11.1068 10.1744 11.2862 10.2462C11.3939 10.3 11.4298 10.4077 11.3939 10.5333C11.358 10.6768 11.2503 10.6948 11.1247 10.6948C11.035 10.6948 10.9094 10.6589 10.8735 10.7665C10.8376 10.8742 10.9812 10.928 11.0709 10.946C11.3221 10.9998 11.5733 10.9101 11.663 10.6409C11.7527 10.3897 11.6451 10.1026 11.3759 10.0129C11.2324 9.9591 11.0888 10.0129 10.9453 10.0488C10.8376 10.0847 10.6223 10.1924 10.5147 10.0847C10.2635 9.81556 10.9274 9.74379 10.9812 9.65407C11.1068 9.51053 10.7659 9.3311 10.6941 9.47464ZM20.1501 9.9591C17.5484 10.1565 14.9466 11.1792 13.0446 13.0094C12.8293 13.2068 12.6319 13.4221 12.4525 13.6554C12.2372 13.9245 12.0219 14.1578 11.681 14.1937C11.34 14.2296 10.9991 14.1757 10.6582 14.1757C10.2635 14.1757 9.86871 14.1937 9.45602 14.1937C8.9895 14.1937 8.50503 14.104 8.05646 14.1578C7.53611 14.2296 7.58993 14.5884 7.76937 14.9832C8.09234 15.665 8.46915 16.311 8.82801 16.9749C9.00744 17.2799 9.16893 17.6029 9.34836 17.9079C9.52779 18.195 9.65339 18.4641 9.63545 18.8051C9.59956 19.1639 9.47396 19.5228 9.42013 19.8637C9.34836 20.2584 9.31247 20.6711 9.29453 21.0838C9.22276 21.8554 9.2407 22.5731 9.43807 23.3267C9.79694 24.6904 10.3352 26.0002 11.1606 27.1486C11.5733 27.7048 12.0398 28.2252 12.5422 28.7097C13.0805 29.23 13.6188 29.7504 14.193 30.2348C14.7492 30.7013 15.3772 31.0781 16.0232 31.4011C16.3282 31.5447 16.6512 31.6344 16.9742 31.76C17.2792 31.8856 17.4407 32.065 17.5842 32.3521C17.8893 33.0339 18.2661 33.6799 18.607 34.3438C18.7326 34.577 19.0556 35.546 19.4503 35.1512C19.5759 35.0256 19.6477 34.8103 19.7195 34.6488C19.8271 34.3797 19.9886 34.1644 20.1501 33.9311C20.3475 33.6261 20.5628 33.339 20.7781 33.0519C20.9575 32.7827 21.137 32.4418 21.4241 32.2624C21.6932 32.1009 22.0341 32.083 22.3392 32.0471C22.716 31.9932 23.0928 31.8856 23.4516 31.7779C24.1155 31.5626 24.7615 31.2935 25.3895 30.9525C27.6144 29.7504 29.642 27.8843 30.7186 25.5517C31.3287 24.2598 31.5619 22.8423 31.5978 21.4068C31.6158 20.6532 31.6158 19.8816 31.526 19.128C31.4902 18.7692 31.4363 18.4103 31.3466 18.0694C31.2569 17.6926 31.2928 17.4952 31.526 17.1722C31.9567 16.5801 32.3694 15.9521 32.8359 15.3779C33.0153 15.1626 33.7689 14.5167 33.5536 14.1937C33.446 14.0322 33.1409 14.0681 32.9615 14.0681C32.5847 14.0681 32.1899 14.0501 31.8131 14.0681C31.4722 14.0681 31.1133 14.0681 30.7724 14.0681C30.4136 14.0681 30.0368 14.1219 29.6779 14.0322C29.3908 13.9604 29.2114 13.7272 29.0319 13.5118C28.7987 13.2427 28.5654 12.9915 28.3142 12.7582C27.7939 12.2558 27.1838 11.8252 26.5558 11.4663C25.2998 10.7486 23.8823 10.3897 22.4468 10.1565C21.6932 9.97705 20.9217 9.90527 20.1501 9.9591ZM8.39737 10.7307C8.39737 11.1075 8.75624 11.3587 8.9895 11.6458C9.15098 11.8611 9.38425 12.2917 9.67133 12.3814C10.0302 12.4891 9.83282 12.0046 9.76105 11.8431C9.68928 11.6816 9.4919 11.3228 9.65339 11.1613C9.88665 10.9639 10.1199 11.4304 10.2276 11.556C10.2993 11.6458 10.4788 11.8431 10.6044 11.7175C10.712 11.6099 10.5685 11.4663 10.4967 11.3946C10.2993 11.1792 10.0302 10.7845 9.68928 10.8024C9.52779 10.8024 9.38424 10.928 9.34836 11.1075C9.31247 11.269 9.45602 11.4663 9.34836 11.6099C9.38424 11.556 8.97155 11.1972 8.91772 11.1613C8.82801 11.0716 8.72035 10.9639 8.61269 10.8742C8.61269 10.8563 8.39737 10.6948 8.39737 10.7307ZM31.6516 10.928C31.5799 11.0357 31.4363 11.0357 31.3825 11.1433C31.2928 11.2869 31.3466 11.4843 31.4363 11.6099C31.526 11.7534 31.8131 11.9687 31.7055 12.1661C31.6516 12.2738 31.4902 12.2917 31.3825 12.2558C31.2031 12.202 31.1851 12.0584 31.2031 11.897C31.2031 11.8072 31.2389 11.6637 31.1313 11.6458C30.9877 11.6099 30.916 11.8252 30.898 11.9149C30.8263 12.3635 31.4543 12.7762 31.8311 12.4711C32.1002 12.2558 32.0105 11.9149 31.8311 11.6816C31.7593 11.574 31.6158 11.4663 31.6516 11.3228C31.6875 11.1972 31.8131 11.1433 31.9208 11.2151C32.0105 11.269 32.0823 11.5202 32.2258 11.4484C32.3335 11.4125 32.2796 11.251 32.2438 11.1792C32.1361 11.0357 31.7772 10.7127 31.6516 10.928ZM19.6477 11.0177C19.1812 11.0895 19.2709 11.6278 19.5042 11.897C19.5759 11.9867 19.863 12.1123 19.7015 12.2379C19.5939 12.3097 19.2888 12.2917 19.1812 12.3097C18.93 12.3635 18.6608 12.4532 18.4096 12.3635C18.1584 12.2917 17.961 12.1302 17.7098 12.0405C17.2613 11.879 16.5974 11.8072 16.2026 12.1661C15.7899 12.5609 16.2744 12.9556 16.6153 13.153C16.9562 13.3504 17.3689 12.9735 17.6919 12.8659C17.8354 12.8121 17.979 12.7941 17.979 12.9735C17.979 13.1889 17.8534 13.3145 18.0328 13.5118C18.3558 13.8886 18.9838 13.6374 19.3068 13.3862C19.4862 13.2427 19.6477 13.0812 19.7733 12.8838C19.9168 12.6685 20.0425 12.4711 20.3295 12.4353C20.509 12.4173 20.7063 12.4353 20.9037 12.4173C21.0114 12.3994 21.2805 12.3455 21.3344 12.4891C21.3882 12.6147 21.137 12.83 21.137 12.9735C21.119 13.1709 21.1908 13.3504 21.3702 13.4401C21.7112 13.6195 22.1059 13.4221 22.3751 13.2068C22.7339 12.9197 23.0389 12.5609 23.5414 12.6506C23.7926 12.6865 24.0079 12.8121 24.2232 12.9018C24.3488 12.9556 24.6359 13.135 24.7794 13.0991C25.1742 12.9735 24.4206 12.7044 24.3488 12.6685C24.1514 12.5609 24.0976 12.3635 24.0438 12.1661C23.954 11.9149 23.8284 11.6458 23.6311 11.4484C23.4158 11.2331 22.9133 10.928 22.716 11.3228C22.6442 11.4484 22.6442 11.5919 22.6621 11.7175C22.6801 11.8431 22.8416 12.0584 22.8236 12.184C22.8057 12.3635 22.4289 12.2379 22.3212 12.2199C22.0341 12.184 21.7112 12.202 21.4241 12.1302C21.2088 12.0764 21.137 11.897 21.0293 11.7355C20.7243 11.3407 20.186 10.928 19.6477 11.0177ZM33.1589 11.1972C33.1589 11.3946 32.9435 11.5381 32.8538 11.6816C32.6923 11.897 32.5667 12.1302 32.4232 12.3455C32.3514 12.4532 31.6696 13.0453 32.0105 13.135C32.1899 13.1889 33.123 12.4532 33.105 12.8659C33.0871 13.0812 32.8 13.3145 32.7103 13.4939C32.6026 13.7272 32.7821 13.781 32.9615 13.6733C33.2665 13.4939 33.7151 12.5967 33.1589 12.4532C33.0333 12.4173 32.7821 12.5609 32.7103 12.4532C32.6385 12.3455 32.8718 12.0943 32.9435 12.0226C33.0691 11.8611 33.2486 11.6996 33.3383 11.5202C33.3921 11.4304 33.4101 11.3587 33.3383 11.251C33.3203 11.2331 33.1589 11.1075 33.1589 11.1972ZM19.6118 11.3048C19.3606 11.4484 19.7554 11.8072 19.881 11.897C20.0783 12.0584 20.3834 12.2558 20.6525 12.2379C21.0831 12.202 20.7243 11.8252 20.5807 11.6996C20.3295 11.5022 19.9527 11.1075 19.6118 11.3048ZM22.9133 11.5022C22.698 11.7534 23.0389 12.1482 23.2363 12.3097C23.3619 12.3994 23.7926 12.6865 23.8284 12.3814C23.8643 12.1123 23.2004 11.1792 22.9133 11.5022ZM8.36149 12.202C8.36149 12.3097 8.16411 12.3814 8.14617 12.4891C8.12823 12.5788 8.21794 12.7762 8.16411 12.8479C8.05645 12.9735 7.75142 12.5967 7.67965 12.525C7.58993 12.4353 7.32079 12.1123 7.19519 12.2738C7.0337 12.4711 7.48228 12.7582 7.60788 12.8479C7.85908 13.0274 8.0744 13.2068 8.30766 13.4221C8.39737 13.4939 8.61269 13.7451 8.75624 13.6554C8.91772 13.5657 8.75624 13.3324 8.68446 13.2247C8.57681 13.0633 8.23589 12.5609 8.5768 12.4532C8.81007 12.3635 9.02538 12.7223 9.15098 12.8659C9.22276 12.9377 9.38425 13.0812 9.4919 12.9735C9.63545 12.83 9.38424 12.6326 9.29453 12.5429C9.1151 12.3994 8.93567 12.2379 8.70241 12.184C8.63063 12.184 8.36149 12.1123 8.36149 12.202ZM16.705 12.2379C16.705 12.3994 16.3821 12.3455 16.3462 12.4891C16.2923 12.6685 16.5435 12.7941 16.6691 12.83C16.9383 12.9197 17.1895 12.8121 17.4407 12.7403C17.5663 12.7044 17.8534 12.6685 17.9252 12.5429C18.1046 12.2199 16.705 12.184 16.705 12.2379ZM21.8188 12.507C21.8188 12.5967 21.5676 12.6685 21.5138 12.7223C21.3882 12.8479 21.2985 13.0991 21.46 13.2427C21.6932 13.458 22.07 13.135 22.2674 13.0094C22.393 12.9197 22.8416 12.6326 22.5007 12.5609C22.4289 12.525 21.8188 12.5429 21.8188 12.507ZM19.5042 12.5429C19.3427 12.7941 18.8761 12.5967 18.6429 12.6865C18.4455 12.7582 18.0867 13.0453 18.1584 13.2965C18.284 13.6733 18.8761 13.3683 19.0735 13.2247C19.253 13.1171 19.3965 12.9735 19.54 12.8121C19.5939 12.7582 19.6836 12.6865 19.6656 12.5967C19.6477 12.5429 19.558 12.4532 19.5042 12.5429ZM12.0578 14.409C11.8783 14.4269 11.8783 14.5346 11.986 14.6781C12.1295 14.8396 15.0722 18.1412 15.3772 18.518C15.6105 18.823 15.8617 19.0563 16.2385 18.823C17.0101 18.3385 17.7996 17.8541 18.6967 17.6208C18.912 17.567 19.1274 17.5311 19.3606 17.5132C19.54 17.4952 19.7554 17.5311 19.9348 17.4414C20.0963 17.3696 20.0783 17.2619 20.0783 17.1005C20.0783 16.8493 20.0425 15.2344 20.0604 14.6781C20.0604 14.3731 20.0963 14.0681 19.7195 14.0322C19.5759 14.0142 12.2013 14.3911 12.0578 14.409ZM20.3116 17.0466C20.3116 17.1722 20.2757 17.3158 20.3834 17.4055C20.491 17.4952 20.6525 17.4593 20.7781 17.4773C21.5856 17.5132 22.4289 17.7464 23.1646 18.0873C23.4516 18.2309 23.8105 18.518 24.1514 18.5C24.4744 18.4821 28.1886 15.3959 28.7987 14.8755C28.8884 14.7858 29.4446 14.4269 29.3908 14.3013C29.3011 14.1398 28.709 14.2116 28.5834 14.2296C26.8608 14.2296 21.7291 14.1398 20.8858 14.086C20.6525 14.0681 20.2937 13.9963 20.2937 14.3013C20.3295 14.8396 20.3295 16.616 20.3116 17.0466ZM29.8932 14.3731C29.8394 14.5167 29.6779 14.5705 29.5702 14.6423C29.3729 14.7679 25.1921 18.2309 24.8333 18.4282C24.5821 18.5718 24.3847 18.7333 24.7077 18.9486C25.3895 19.4151 26.0893 19.8099 26.6993 20.3661C27.0223 20.6532 27.3274 20.9403 27.6503 21.1915C27.8836 21.3709 28.2066 21.5683 28.4578 21.3171C28.5654 21.2094 29.5164 19.5946 29.7676 19.2177C30.27 18.4462 30.7724 17.6746 31.3107 16.921C31.7593 16.2751 32.1899 15.6112 32.6923 15.0191C32.8179 14.8755 33.105 14.6243 33.123 14.4269C33.123 14.2834 32.9435 14.3372 32.8359 14.3372C32.5129 14.3372 31.1672 14.3552 30.6648 14.3193C30.5212 14.2834 29.9829 14.1398 29.8932 14.3731ZM7.93085 14.4987C7.93085 14.6781 8.09234 14.8396 8.16411 14.9832C8.28972 15.1985 8.37943 15.4318 8.48709 15.6471C8.70241 16.0777 8.91772 16.4904 9.13304 16.9031C9.59956 17.7644 10.084 18.6256 10.5864 19.469C10.8376 19.8816 11.0888 20.2943 11.34 20.725C11.4477 20.9223 11.5554 21.1197 11.681 21.335C11.7707 21.4786 11.8425 21.676 11.986 21.7657C12.4166 22.0707 12.9729 21.3889 13.2241 21.1197C13.4573 20.8685 13.6906 20.6353 13.9597 20.4199C14.3186 20.1328 14.6775 19.8099 15.0722 19.5587C15.2158 19.469 15.4131 19.4151 15.5208 19.2716C15.6643 19.0742 15.449 18.9307 15.3234 18.8051C14.9825 18.4821 14.6954 18.1232 14.3724 17.7823C13.7265 17.1005 13.0626 16.4186 12.4525 15.683C12.2013 15.36 11.986 14.9832 11.663 14.714C11.34 14.4269 10.9632 14.4449 10.5505 14.4628C10.2814 14.4808 7.93085 14.3731 7.93085 14.4987ZM34.6302 14.7858C34.056 14.9652 34.7199 15.9521 34.2534 16.0777C34.0201 16.1315 33.8586 15.8086 33.8586 15.6291C33.8586 15.5035 33.9663 15.1805 33.751 15.1805C33.428 15.1805 33.5177 15.7009 33.5895 15.8624C33.6972 16.1315 33.9663 16.3827 34.2713 16.3648C34.702 16.3289 34.702 15.8444 34.6481 15.5394C34.6302 15.3959 34.5584 14.8935 34.8635 15.037C35.007 15.1088 34.9532 15.3061 35.007 15.4138C35.0967 15.6291 35.2582 15.4497 35.2761 15.2882C35.312 15.0011 34.9173 14.6961 34.6302 14.7858ZM6.28009 15.8983C6.20831 16.0059 6.06477 16.0239 5.97505 16.1136C5.8674 16.2212 5.84945 16.3827 5.88534 16.5263C5.93917 16.8134 6.2442 17.1005 6.53129 16.8851C6.69278 16.7595 6.74661 16.4545 6.96193 16.4007C7.23107 16.3289 7.23107 16.6878 7.12341 16.8493C7.05164 16.9749 6.76455 17.0825 6.78249 17.244C6.81838 17.549 7.24901 17.2081 7.32079 17.1184C7.50022 16.9031 7.5361 16.5801 7.39256 16.3289C7.17724 15.988 6.81838 16.0777 6.62101 16.3468C6.54923 16.4545 6.47746 16.6339 6.33392 16.6519C6.17243 16.6519 6.10066 16.4545 6.17243 16.3289C6.22626 16.2212 6.38775 16.2033 6.44158 16.0956C6.44158 16.0239 6.35186 15.7727 6.28009 15.8983ZM34.8455 17.549C34.6661 17.7285 35.007 18.1591 35.2582 17.9976C35.5812 17.7644 35.0967 17.2799 34.8455 17.549ZM5.92123 17.6029C5.92123 17.6388 5.81357 17.6567 5.79562 17.6926C5.74179 17.7464 5.72385 17.8182 5.70591 17.89C5.70591 17.9797 5.81357 18.1591 5.79562 18.2129C5.74179 18.3385 5.27527 18.0873 5.16761 18.0694C5.05996 18.0335 4.79081 17.9976 4.88053 18.177C4.9523 18.3206 5.27527 18.3565 5.38293 18.3924C5.61619 18.4641 5.83151 18.5359 6.06477 18.6256C6.2442 18.6974 6.45952 18.8409 6.63895 18.8768C6.78249 18.8948 6.92604 18.823 6.81838 18.6795C6.76455 18.5897 6.63895 18.5359 6.54923 18.5C6.40569 18.4283 5.993 18.2129 6.02888 18.0156C6.10066 17.6567 6.85427 18.4641 7.0337 18.1412C7.14136 17.9258 6.69278 17.8002 6.54923 17.7644C6.47746 17.6926 5.92123 17.4773 5.92123 17.6029ZM19.7554 17.7285C18.6788 17.7644 17.674 18.2668 16.7589 18.7871C15.7899 19.3433 14.8928 19.9893 14.0315 20.707C13.8341 20.8865 13.6368 21.0659 13.4394 21.2453C13.2958 21.3709 13.0985 21.4965 13.242 21.6939C13.3676 21.9092 13.6906 22.0707 13.87 22.2322C14.0853 22.4116 14.3186 22.5911 14.5339 22.7705C15.4311 23.4344 16.4359 23.883 17.4945 24.2059C18.5711 24.5469 19.7015 24.7442 20.8319 24.7263C21.8188 24.7083 22.7339 24.3495 23.5593 23.8112C24.4923 23.2011 25.3895 22.5372 26.179 21.7477C26.3225 21.5862 26.484 21.4068 26.6635 21.3171C26.7891 21.2633 27.13 21.2812 27.0941 21.1197C27.0761 20.9582 26.7173 20.7967 26.6096 20.707C26.3943 20.5276 26.179 20.3482 25.9637 20.1687C24.2411 18.7333 22.07 17.6567 19.7554 17.7285ZM20.1681 17.9797C19.863 18.0514 19.9168 18.5897 19.863 18.823C19.7554 19.3792 19.5221 19.8816 19.3247 20.402C19.235 20.6532 19.1632 20.9044 19.0376 21.1377C18.912 21.4068 18.912 21.5324 19.0735 21.8016C19.3606 22.286 19.558 22.7884 19.7554 23.3088C19.8451 23.542 19.9348 23.7753 19.9707 24.0086C19.9886 24.1521 20.0066 24.4392 20.186 24.493C20.4551 24.5827 20.5807 23.9547 20.6346 23.7753C20.814 23.2549 21.0293 22.7525 21.2267 22.2322C21.4241 21.7118 21.4958 21.2453 21.3164 20.707C21.137 20.1508 20.8499 19.6484 20.6525 19.0921C20.5628 18.8409 20.509 18.5897 20.4551 18.3385C20.4372 18.177 20.3834 17.9438 20.1681 17.9797ZM5.84945 19.3792C5.70591 19.469 5.58031 19.5946 5.56236 19.774C5.56236 19.8816 5.58031 19.9893 5.63414 20.0611C5.68796 20.1328 5.77768 20.1867 5.77768 20.2764C5.77768 20.1687 5.34705 20.1508 5.25733 20.1149C5.0779 20.0431 4.80875 19.7919 4.61138 19.8996C4.27046 20.079 5.16761 20.4199 5.27527 20.4558C5.41882 20.5097 5.58031 20.5455 5.72385 20.5994C5.88534 20.6532 6.44158 20.9762 6.58512 20.7609C6.71072 20.5455 6.19037 20.2764 6.08271 20.1687C5.993 20.079 5.84945 19.9534 5.84945 19.8099C5.84945 19.6125 6.04683 19.6125 6.19037 19.6663C6.33392 19.7202 6.4954 19.8458 6.65689 19.8458C6.83632 19.8458 6.89015 19.7202 6.76455 19.5946C6.56718 19.4331 6.08271 19.2177 5.84945 19.3792ZM35.1505 19.469C35.1505 19.5407 35.0429 19.5766 35.0249 19.6304C34.9711 19.7202 35.0429 19.8099 35.0249 19.8996C34.9891 20.097 34.8635 19.9355 34.7737 19.8637C34.6481 19.756 34.4328 19.5048 34.2534 19.5228C33.9125 19.5587 34.4508 19.9714 34.5225 20.0252C34.8814 20.2764 35.2582 20.5635 35.5812 20.8506C35.6888 20.9403 35.8324 21.1197 35.9939 21.1018C36.1912 21.0838 36.1195 20.9223 36.0477 20.7967C35.8324 20.5097 35.4735 20.3482 35.33 20.0072C35.1505 19.6125 35.5812 19.7022 35.7965 19.8099C35.8862 19.8637 36.4066 20.2226 36.4066 19.8816C36.4066 19.6843 35.94 19.5587 35.7965 19.5048C35.7247 19.5228 35.1505 19.3075 35.1505 19.469ZM5.8674 21.2094C5.54442 21.335 5.72385 21.7118 5.54442 21.9092C5.41882 22.0348 5.23939 22.0169 5.14967 21.8554C5.0779 21.6939 5.18556 21.5862 5.22144 21.4427C5.23939 21.3171 5.18556 21.2094 5.04201 21.2812C4.91641 21.335 4.84464 21.5145 4.84464 21.658C4.84464 21.963 5.11379 22.3398 5.43676 22.304C5.74179 22.286 5.74179 21.963 5.84945 21.7298C6.01094 21.353 6.29803 21.6042 6.31597 21.9272C6.31597 22.1066 6.2442 22.1963 6.08271 22.2681C5.93917 22.3219 5.74179 22.4475 5.993 22.5552C6.2442 22.6628 6.51335 22.4475 6.58512 22.2142C6.67484 21.8195 6.42363 20.9941 5.8674 21.2094ZM34.8276 21.2991C34.8276 21.335 34.7379 21.353 34.7199 21.3709C34.6661 21.4247 34.6302 21.4786 34.5943 21.5504C34.5225 21.7118 34.5405 21.9272 34.6123 22.0886C34.7199 22.3578 35.0429 22.5193 35.2941 22.304C35.4197 22.1963 35.653 21.7477 35.8324 22.0528C36.0118 22.3578 35.7068 22.5013 35.5094 22.6449C35.4197 22.7167 35.3479 22.8243 35.4735 22.8961C35.5632 22.9499 35.7247 22.8961 35.8144 22.8423C36.1015 22.6987 36.2092 22.3757 36.1374 22.0707C36.0656 21.8016 35.8144 21.4965 35.5274 21.676C35.3479 21.7836 35.2761 22.1425 35.0429 22.1604C34.7917 22.1784 34.7737 21.7657 34.8814 21.6221C34.9352 21.5504 35.1326 21.5145 35.0788 21.3889C35.0788 21.3171 34.8276 21.2453 34.8276 21.2991ZM27.2556 21.4427C27.0403 21.5145 26.807 21.5862 26.6276 21.7298C26.4302 21.8913 26.2867 22.0886 26.1072 22.2681C25.7125 22.6628 25.246 22.9858 24.7974 23.3088C24.3667 23.6318 23.9361 23.9547 23.4696 24.2239C23.3081 24.3136 23.2004 24.3854 23.2363 24.5827C23.2902 24.8339 23.5055 25.0493 23.649 25.2825C23.9361 25.767 24.2232 26.2873 24.4744 26.7897C24.5462 26.9333 24.6 27.0948 24.7794 26.9871C24.9409 26.8974 24.9947 26.6641 25.0665 26.5206C25.3177 26.0361 25.6586 25.6055 25.9816 25.1749C26.3046 24.7083 26.6276 24.2239 26.9326 23.7394C27.2735 23.2011 27.5786 22.6449 27.9374 22.1245C28.0451 21.963 28.2424 21.7836 28.0271 21.6221C27.8477 21.4786 27.4888 21.3709 27.2556 21.4427ZM10.4967 21.8016C10.4967 21.8554 10.3711 21.9092 10.3352 21.9451C10.2635 22.0348 10.2455 22.1604 10.2455 22.2681C10.2276 22.5193 10.3173 22.7525 10.4429 22.9679C10.5685 23.1832 10.7479 23.3805 10.9453 23.5241C11.1247 23.6497 11.3221 23.7394 11.4118 23.9547C11.5015 24.17 11.5374 24.4033 11.6271 24.6366C11.6989 24.7801 11.7707 25.0134 11.5374 24.9595C11.3042 24.9237 11.1247 24.7801 10.8915 24.8698C10.73 24.9237 10.6403 25.0493 10.6582 25.2107C10.6941 25.5875 11.0888 25.8567 11.4118 25.9823C11.7886 26.1258 12.2193 26.072 12.4705 26.4129C12.5781 26.5565 12.6319 26.718 12.7217 26.8615C12.7934 27.0051 12.919 27.1307 13.0088 27.2563C13.1164 27.4357 12.9908 27.4177 12.8473 27.4177C12.6499 27.3998 12.3807 27.4716 12.2551 27.651C12.0039 28.0278 12.5063 28.3149 12.8293 28.3687C13.0626 28.4046 13.2779 28.3687 13.5112 28.3687C13.7982 28.3687 13.9418 28.4405 14.1751 28.602C14.2468 28.6558 14.4083 28.7814 14.498 28.7455C14.6775 28.6558 14.3724 28.4584 14.3007 28.4046C13.9597 28.1355 13.4573 27.7407 13.5112 27.2563C13.547 26.8615 13.7444 26.5026 13.6368 26.09C13.565 25.8029 13.2958 25.4799 12.9729 25.6952C12.8652 25.767 12.7755 26.0541 12.6319 26.0541C12.4884 26.0541 12.4166 25.7849 12.3628 25.6773C12.2551 25.444 12.1654 25.2107 12.2193 24.9595C12.2731 24.7263 12.4346 24.511 12.5063 24.2777C12.6319 23.9009 12.6858 23.0396 12.1295 22.932C12.0039 22.914 11.8963 22.9499 11.8066 23.0396C11.7707 23.0755 11.6989 23.1832 11.6271 23.1832C11.5195 23.1652 11.5015 23.0396 11.5015 22.9499C11.4656 22.6987 11.5554 22.3757 11.4656 22.1425C11.3939 21.963 11.1247 21.8195 10.9453 21.7477C10.8376 21.8195 10.4967 21.7118 10.4967 21.8016ZM12.7575 21.8913C12.7575 22.0169 12.4884 22.0169 12.4166 22.0348C12.1654 22.1245 12.291 22.3219 12.3987 22.4834C12.7217 22.9858 13.0267 23.5062 13.3317 24.0265C13.6547 24.5648 13.9597 25.0851 14.2827 25.6234C14.4442 25.8926 14.5877 26.1797 14.7492 26.4488C14.8389 26.6283 14.9287 26.8974 15.0543 27.0589C15.1978 27.2204 15.3234 27.1127 15.449 26.9692C15.6284 26.7718 15.7899 26.5565 15.9694 26.3591C16.3641 25.9105 16.7768 25.4619 17.2074 25.0313C17.3151 24.9237 17.6381 24.7083 17.5842 24.5289C17.5304 24.3495 17.2074 24.3495 17.0639 24.3136C16.5435 24.2059 16.0053 23.9368 15.5387 23.6856C14.9466 23.3805 14.4083 23.0037 13.9059 22.5731C13.6726 22.3757 13.4573 22.1066 13.1882 21.963C13.0805 21.9451 12.7575 21.7836 12.7575 21.8913ZM10.5326 22.0886C10.5326 22.304 10.4788 22.5013 10.5685 22.7167C10.6223 22.8602 10.73 22.9679 10.8197 23.0935C10.8915 23.2011 11.0888 23.5062 11.1965 23.3267C11.2503 23.237 11.2144 23.0217 11.2144 22.914C11.1965 22.7525 11.1786 22.5911 11.1247 22.4296C11.0709 22.2681 10.9453 22.1425 10.8018 22.0886C10.73 22.0348 10.5326 21.963 10.5326 22.0886ZM29.337 22.0707C29.2293 22.1963 29.2652 22.4116 29.2473 22.5552C29.2293 22.7525 29.1755 22.9499 29.1037 23.1473C28.9961 23.4703 28.8525 23.7215 28.5295 23.865C28.081 24.0444 27.3632 24.0983 27.2556 24.6725C27.2017 24.9775 27.435 25.3184 27.758 25.3184C27.8298 25.3184 28.0271 25.2287 28.081 25.3184C28.1348 25.4081 27.9733 25.5337 27.9195 25.6055C27.7221 25.8926 27.6324 26.2335 27.2735 26.377C26.9326 26.5026 26.5379 26.4309 26.1969 26.5565C25.874 26.6641 25.4613 26.9153 25.4074 27.2921C25.3536 27.6331 25.6407 27.9919 25.9996 27.956C25.874 27.974 25.8022 28.0816 25.7125 28.1714C25.5869 28.297 25.4613 28.3867 25.3177 28.4764C25.228 28.5302 25.1024 28.584 25.0306 28.6738C24.8871 28.8353 24.9589 28.9967 24.9768 29.1762C24.9947 29.4274 24.9589 29.7145 25.246 29.8221C25.533 29.9298 25.856 29.7145 26.0534 29.4991C26.2867 29.2479 26.4123 28.925 26.484 28.6199C26.5558 28.297 26.484 27.956 26.6814 27.669C26.8429 27.4536 27.0761 27.2921 27.2376 27.0768C27.3632 26.8974 27.453 26.7359 27.5247 27.0409C27.5786 27.2383 27.6144 27.4536 27.74 27.6151C27.9554 27.8484 28.2424 27.7766 28.4219 27.5433C28.6013 27.2921 28.6193 26.9871 28.6013 26.7C28.5834 26.3412 28.386 26.072 28.3142 25.7311C28.2604 25.444 28.4757 25.2466 28.6013 25.0134C28.691 24.8339 28.7449 24.6366 28.8346 24.4571C28.8884 24.3315 28.9602 24.1521 29.0858 24.2598C29.1396 24.2956 29.1575 24.4033 29.1934 24.4571C29.2831 24.6186 29.4088 24.7622 29.5702 24.8339C29.8753 24.9595 30.0906 24.7622 30.1265 24.4571C30.1624 24.188 30.0547 23.883 29.947 23.6497C29.8214 23.3985 29.5882 23.1832 29.4985 22.914C29.4446 22.7346 29.5164 22.5731 29.5344 22.3937C29.5702 22.2142 29.4985 21.8913 29.337 22.0707ZM29.3549 23.237C29.3549 23.4164 29.2652 23.5779 29.2652 23.7394C29.2652 23.9009 29.319 24.0624 29.3908 24.2059C29.4805 24.3674 29.6958 24.6366 29.8753 24.4033C30.0188 24.2239 29.8573 23.9188 29.7676 23.7394C29.6958 23.5959 29.6241 23.4344 29.5164 23.3088C29.4985 23.3267 29.3549 23.2011 29.3549 23.237ZM11.8245 23.3088C11.5374 23.6138 11.681 24.0086 11.7527 24.3674C11.7707 24.4571 11.7886 24.6366 11.8783 24.6904C12.0039 24.7622 12.0937 24.5827 12.1475 24.493C12.2551 24.2418 12.2731 23.9188 12.2193 23.6676C12.1834 23.4882 12.0757 23.0755 11.8245 23.3088ZM34.6302 23.4703C34.6302 23.542 34.5405 23.56 34.5046 23.5959C34.4508 23.6676 34.4687 23.7753 34.4508 23.8471C34.4328 23.9727 34.4149 24.1342 34.2534 24.0265C34.1278 23.9547 34.0201 23.3985 33.7869 23.56C33.6254 23.6856 33.9304 23.9727 34.0022 24.0624C34.3072 24.4033 34.6123 24.7263 34.8814 25.1031C34.9532 25.1928 35.0429 25.3363 35.1505 25.3722C35.2941 25.4261 35.3659 25.2825 35.3479 25.1569C35.312 24.9057 35.0249 24.7263 34.9173 24.511C34.8455 24.3674 34.702 24.0624 34.7379 23.883C34.8276 23.56 35.2223 24.1162 35.312 24.2059C35.3838 24.2956 35.5991 24.4751 35.7068 24.3495C35.8503 24.2059 35.5991 23.9906 35.5094 23.9188C35.33 23.7574 35.1685 23.5779 34.9352 23.4882C34.9173 23.4882 34.6302 23.3805 34.6302 23.4703ZM28.5295 24.1342C28.2424 24.2418 27.8656 24.2777 27.6503 24.5289C27.435 24.7801 27.6144 25.0493 27.9195 25.0493C28.2425 25.0493 28.4039 24.7442 28.5475 24.493C28.6013 24.3854 28.7807 24.0444 28.5295 24.1342ZM5.83151 24.1342C5.83151 24.2777 5.63414 24.2956 5.67002 24.4751C5.70591 24.6545 5.95711 24.7622 6.10066 24.6545C6.22626 24.5648 6.26214 24.3495 6.13654 24.2418C6.10066 24.2239 5.83151 24.1162 5.83151 24.1342ZM22.7339 24.6366C21.9803 25.0313 21.1011 25.0493 20.2578 24.9954C20.1501 24.9954 20.0066 24.9416 19.9348 25.0313C19.8271 25.139 19.863 25.4619 19.881 25.6055C19.881 26.072 19.8092 26.5206 19.7554 26.9871C19.558 28.8711 19.4503 30.7552 19.4144 32.6571C19.4144 33.1595 19.3965 33.6619 19.3965 34.1644C19.3965 34.2182 19.3786 34.5232 19.4324 34.5232C19.4862 34.5232 19.5759 34.2361 19.6118 34.2002C19.7195 34.0029 19.8451 33.8414 19.9707 33.6619C20.509 32.9083 21.0293 32.1368 21.5497 31.3832C22.088 30.6116 22.6621 29.876 23.2363 29.1044C23.5234 28.7276 23.8105 28.3508 24.1155 27.974C24.2411 27.8125 24.3847 27.6331 24.4026 27.4177C24.4206 27.2204 24.295 27.0409 24.2052 26.8795C23.954 26.4847 23.7567 26.0541 23.5234 25.6234C23.3978 25.3902 23.2722 25.1749 23.1466 24.9416C23.0569 24.7981 22.9492 24.5289 22.7339 24.6366ZM17.8534 24.6725C17.2074 25.3722 16.6153 26.1079 15.9155 26.7539C15.6643 26.9871 15.2337 27.2921 15.3772 27.6869C15.4311 27.8304 15.5387 27.974 15.6284 28.0996C15.754 28.297 15.8617 28.5123 15.9873 28.7097C16.4718 29.5709 16.9562 30.4322 17.4228 31.3293C17.8713 32.1727 18.3379 33.0339 18.7147 33.8952C18.7864 34.0567 18.8403 34.4873 19.0197 34.5591C19.1274 34.595 19.0915 34.4514 19.0915 34.3797C19.1094 33.9132 19.1094 33.4287 19.1094 32.9622C19.1274 31.5626 19.1812 30.163 19.3068 28.7635C19.3606 28.2072 19.4144 27.651 19.4683 27.0948C19.5221 26.5744 19.5221 26.0361 19.6118 25.5158C19.6477 25.3363 19.7374 25.1031 19.54 24.9595C19.3965 24.8519 19.1632 24.8698 19.0018 24.8519C18.7685 24.8339 18.5352 24.7981 18.3199 24.7083C18.1943 24.6725 17.979 24.5289 17.8534 24.6725ZM10.9094 25.121C10.73 25.1928 11.0888 25.5158 11.1427 25.5517C11.3042 25.6952 11.7527 26.0002 11.986 25.9285C12.2372 25.8567 11.9501 25.5337 11.8604 25.4261C11.6271 25.1928 11.2503 24.9775 10.9094 25.121ZM34.074 25.4619C33.6972 25.5517 33.5895 26.2873 33.9125 26.5026C34.2534 26.7359 34.6661 25.8029 34.8455 26.2873C34.8993 26.4129 34.8993 26.6103 34.8276 26.7359C34.7199 26.8795 34.5584 26.8436 34.4149 26.9153C34.2534 26.9871 34.2175 27.1486 34.4149 27.2024C34.5764 27.2383 34.7737 27.1665 34.8993 27.0768C35.2403 26.7897 35.33 25.9105 34.7917 25.8029C34.5764 25.767 34.4149 25.8926 34.2893 26.0541C34.2175 26.1438 34.0919 26.3591 34.0022 26.1438C33.9304 26.0002 34.0919 25.8567 34.1637 25.749C34.2354 25.6414 34.3072 25.4081 34.074 25.4619ZM28.0271 25.9464C27.9374 26.1079 27.8118 26.2514 27.758 26.4309C27.7042 26.6103 27.74 26.8256 27.7939 27.0051C27.8477 27.2024 28.0271 27.5254 28.2245 27.2742C28.4398 27.0051 28.3501 26.5565 28.2783 26.2514C28.2604 26.2156 28.1348 25.767 28.0271 25.9464ZM13.0446 25.9464C12.7037 26.1258 12.7575 26.5206 12.9011 26.8256C13.0267 27.0589 13.2241 27.2742 13.3138 26.8795C13.3497 26.7 13.4573 25.7311 13.0446 25.9464ZM7.37462 26.5026C7.01575 26.9333 6.40569 26.9692 5.97505 27.2921C5.81357 27.3998 5.74179 27.5972 5.97505 27.651C6.19037 27.7048 6.44157 27.6331 6.65689 27.6151C6.78249 27.5972 7.14136 27.6151 7.1593 27.7766C7.17724 27.9919 6.67484 28.0458 6.54923 28.1175C6.42363 28.1893 6.2442 28.4226 6.47746 28.4405C6.63895 28.4584 6.83632 28.3328 6.97987 28.279C7.17724 28.1714 7.5361 27.974 7.48228 27.6869C7.44639 27.5254 7.2849 27.4177 7.12341 27.3819C6.97987 27.346 6.76455 27.4177 6.65689 27.2921C6.71072 27.346 7.10547 26.9871 7.1593 26.9512C7.2849 26.8615 7.50022 26.8256 7.55405 26.6641C7.58993 26.5744 7.50022 26.3591 7.37462 26.5026ZM26.8249 26.6462C26.8249 26.7359 26.1969 26.8256 26.1072 26.8615C25.8381 26.9692 25.3716 27.4716 25.856 27.651C26.2328 27.7946 26.5558 27.328 26.7711 27.0948C26.8608 27.0051 27.0403 26.8974 27.0761 26.7539C27.1479 26.5565 26.8249 26.7 26.8249 26.6462ZM33.3383 27.5792C33.2306 27.6331 33.1589 27.7407 33.123 27.8484C33.105 27.9381 33.1409 28.0458 33.0691 28.1355C33.123 28.0816 32.8359 27.6869 32.7821 27.651C32.6385 27.5433 32.5667 27.651 32.5667 27.7946C32.5847 27.956 32.7103 28.1175 32.7821 28.2611C32.9435 28.584 33.0153 28.9967 33.2845 29.2659C33.3562 29.3377 33.4818 29.4633 33.5895 29.3556C33.7151 29.23 33.5536 29.0506 33.4818 28.9429C33.3383 28.6917 33.2127 28.3149 33.3203 28.0278C33.4639 27.669 33.751 27.9381 33.9125 28.1175C33.9663 28.1893 34.074 28.3867 34.1996 28.3328C34.3431 28.279 34.2354 28.0458 34.1816 27.956C34.0381 27.7228 33.6613 27.3998 33.3383 27.5792ZM12.6499 27.7228C12.6499 27.8484 12.3449 27.7587 12.3987 27.956C12.4346 28.0996 12.7217 28.1534 12.8473 28.1893C12.9549 28.2072 13.6547 28.3508 13.6009 28.1175C13.565 27.8843 12.6499 27.5972 12.6499 27.7228ZM26.2149 28.1534C25.9816 28.4764 25.5151 28.5482 25.3177 28.925C25.246 29.0506 25.1742 29.23 25.228 29.3735C25.2998 29.535 25.4792 29.5709 25.6228 29.4991C25.874 29.3735 26.0175 29.0506 26.1072 28.7994C26.1252 28.7455 26.3225 28.1175 26.2508 28.1175C26.2328 28.1175 26.2149 28.1355 26.2149 28.1534ZM8.4512 28.2252C8.4512 28.3149 8.2 28.3867 8.14617 28.4046C7.93085 28.5123 7.75142 28.6558 7.5361 28.7635C7.4105 28.8353 6.76455 29.1044 7.0337 29.3197C7.23107 29.4812 7.60788 29.3197 7.82319 29.3018C8.09234 29.2838 8.36149 29.4453 8.09234 29.7145C7.91291 29.876 7.57199 29.9118 7.48228 30.163C7.35667 30.5219 7.91291 30.2528 8.02057 30.181C8.27177 30.0195 8.63063 29.6786 8.54092 29.3556C8.48709 29.0865 8.2 29.0865 7.98468 29.0506C7.91291 29.0326 7.75142 29.0506 7.76937 28.9609C7.78731 28.8891 8.11028 28.7635 8.16411 28.7455C8.27177 28.6738 8.5768 28.5482 8.63063 28.4226C8.72035 28.2252 8.4512 28.2252 8.4512 28.2252ZM9.4919 29.1941C9.3663 29.2479 9.31247 29.4094 9.25864 29.5171C9.16893 29.6965 9.02538 29.876 8.88184 30.0195C8.73829 30.181 8.05645 30.6296 8.16411 30.8808C8.25383 31.132 8.77418 30.8808 8.91772 30.8269C9.09716 30.7552 9.56368 30.6834 9.42013 31.0243C9.31247 31.2755 9.06127 31.4191 8.88184 31.5985C8.81007 31.6703 8.66652 31.8497 8.79212 31.9394C8.91772 32.0471 9.09715 31.8856 9.16893 31.7959C9.38424 31.5805 9.72516 31.2037 9.74311 30.8987C9.76105 30.5578 9.40219 30.4142 9.13304 30.486C9.04333 30.504 8.84595 30.6116 8.82801 30.4681C8.81007 30.3604 9.04333 30.2348 9.1151 30.163C9.27659 29.9836 9.38424 29.7504 9.54573 29.5709C9.59956 29.4991 9.70722 29.4094 9.67133 29.3018C9.65339 29.2121 9.58162 29.1582 9.4919 29.1941ZM32.1002 29.2479C32.1002 29.4633 31.6696 29.5709 31.5978 29.7862C31.4902 30.0733 31.5978 30.4322 31.9208 30.486C32.1002 30.504 32.2258 30.4142 32.3873 30.3604C32.495 30.3066 32.6744 30.2886 32.6923 30.4501C32.7103 30.6475 32.4053 30.809 32.2617 30.8808C32.1899 30.9167 32.0464 30.9705 32.0284 31.0602C32.0105 31.1679 32.1182 31.2217 32.2258 31.2217C32.4232 31.2217 32.6565 31.0243 32.7821 30.8987C32.9256 30.7372 33.0691 30.3963 32.9435 30.1989C32.7462 29.876 32.4052 30.181 32.154 30.2169C31.7952 30.2886 31.8131 29.9118 31.9926 29.7145C32.0823 29.6247 32.2796 29.553 32.2976 29.4274C32.3155 29.2659 32.1002 29.1941 32.1002 29.2479ZM10.6223 30.504C10.3173 30.8628 10.0481 31.2396 9.70722 31.5626C9.56368 31.7062 9.33042 31.8676 9.27659 32.083C9.20481 32.4239 9.65339 32.2624 9.79694 32.1906C9.94048 32.1188 10.4249 31.8318 10.4608 32.1727C10.4788 32.37 10.2096 32.5495 10.084 32.6751C9.95842 32.8366 9.88665 33.1237 10.2096 32.9801C10.4608 32.8545 10.73 32.4956 10.7659 32.2265C10.7838 32.065 10.73 31.9035 10.5864 31.8318C10.407 31.742 10.2276 31.8676 10.0481 31.8138C9.74311 31.7241 10.2814 31.3652 10.3711 31.2576C10.5147 31.114 10.6582 30.9525 10.7659 30.7731C10.8018 30.7013 10.8556 30.6296 10.8197 30.5578C10.8018 30.4501 10.6761 30.4322 10.6223 30.504ZM29.8573 30.8628C29.6779 31.0602 29.9291 31.4191 30.0009 31.6164C30.1265 31.9574 30.1624 32.3162 30.288 32.6571C30.3239 32.7648 30.4136 32.9263 30.5571 32.8545C30.7007 32.7827 30.6289 32.5495 30.6109 32.4418C30.5751 32.2624 30.4315 31.5985 30.7365 31.5447C30.9519 31.5088 31.0416 31.8856 31.1133 32.0291C31.2569 32.3342 31.4543 32.1727 31.4184 31.9035C31.3646 31.6344 31.1492 31.2935 30.8621 31.2217C30.7365 31.1858 30.5751 31.2037 30.4853 31.3114C30.4495 31.3652 30.3956 31.5626 30.3239 31.5626C30.1803 31.5447 30.0906 30.6116 29.8573 30.8628ZM29.0499 32.388C28.7987 32.5315 28.4757 32.7648 28.5475 33.0878C28.6013 33.3749 28.9063 33.3749 29.1217 33.321C29.2832 33.2851 29.5702 33.1595 29.6241 33.3749C29.6958 33.6619 29.3549 33.8414 29.1217 33.8234C29.014 33.8055 28.9243 33.7337 28.8346 33.7337C28.6731 33.7337 28.6551 33.8593 28.7449 33.967C28.9422 34.2002 29.3729 34.1644 29.5882 34.0029C29.8214 33.8414 30.0368 33.4107 29.8753 33.1416C29.7317 32.8904 29.4088 32.9442 29.1755 33.016C29.0678 33.0519 28.8884 33.1416 28.8166 32.9981C28.7628 32.8545 28.9422 32.7469 29.0319 32.6751C29.1217 32.6212 29.3549 32.5315 29.319 32.388C29.3011 32.3162 29.1217 32.3521 29.0499 32.388ZM11.8604 32.4239C11.8604 32.5136 11.681 32.5674 11.6271 32.6212C11.5374 32.7648 11.5733 32.9981 11.6451 33.1416C11.7168 33.2672 12.1654 33.6081 11.8963 33.7517C11.7348 33.8414 11.358 33.644 11.2862 33.5005C11.1965 33.339 11.3042 33.1057 11.1786 32.9622C10.9453 32.711 10.9274 33.2672 10.9453 33.3928C10.9991 33.7337 11.2683 33.967 11.6092 34.0208C11.8783 34.0567 12.2372 33.949 12.2372 33.6261C12.2193 33.321 11.8066 33.1416 11.8425 32.8186C11.8783 32.5854 12.0398 32.693 12.1475 32.7827C12.2551 32.8545 12.5422 32.8725 12.3987 32.6571C12.3628 32.5854 11.8604 32.3521 11.8604 32.4239ZM26.6276 33.1237C26.5199 33.2493 26.5917 33.4287 26.6096 33.5722C26.6635 33.7876 26.6814 34.0029 26.6993 34.2182C26.7173 34.4694 26.6455 35.223 26.9147 35.3845C27.2376 35.5639 27.2018 34.6847 27.2018 34.5591C27.2197 34.4156 27.3812 33.7696 27.5786 34.1464C27.6324 34.2541 27.7221 35.2768 27.9733 34.8821C28.1886 34.5232 27.6324 33.321 27.2197 33.8055C27.1659 33.8593 27.0941 34.1644 26.9685 34.0926C26.8967 34.0567 26.8967 33.6261 26.8788 33.5363C26.8608 33.4287 26.7891 32.9263 26.6276 33.1237ZM13.2241 33.2851C13.2241 33.3569 13.0446 33.4287 13.0088 33.4646C12.9011 33.5722 12.8832 33.7517 12.919 33.8952C12.9549 34.0567 13.0626 34.1644 13.1882 34.272C13.2779 34.3438 13.4932 34.4694 13.4035 34.6129C13.2779 34.8283 12.9011 34.577 12.7934 34.4514C12.7396 34.3797 12.6858 34.2002 12.5602 34.2541C12.4525 34.29 12.4705 34.4694 12.4884 34.5412C12.6319 34.9539 13.5291 35.223 13.6906 34.7026C13.7803 34.4156 13.547 34.272 13.3676 34.1285C13.2061 34.0029 13.0088 33.6619 13.3317 33.5722C13.4573 33.5363 13.9597 33.8055 13.8341 33.5005C13.7803 33.3569 13.6368 33.321 13.5112 33.3031C13.4932 33.2851 13.2241 33.2313 13.2241 33.2851ZM14.8569 34.0208C14.5519 34.0567 14.498 34.4335 14.6057 34.6668C14.7133 34.9 15.0004 35.0077 15.1081 35.2409C15.2516 35.5639 14.8389 35.6536 14.6236 35.4742C14.516 35.3845 14.4801 35.2768 14.4083 35.1692C14.3186 35.0077 14.1571 35.0256 14.1212 35.2409C14.0495 35.7972 15.0722 36.1022 15.3593 35.6716C15.5926 35.3486 15.2516 35.0795 15.0363 34.8821C14.9287 34.7744 14.5877 34.4335 14.8569 34.3079C15.0004 34.2541 15.4311 34.5053 15.4849 34.29C15.5567 34.0567 14.9825 34.0029 14.8569 34.0208ZM16.705 34.1285C16.5615 34.272 16.5615 34.5053 16.5256 34.7026C16.4718 34.9539 16.4 35.223 16.2744 35.4563C16.2026 35.5998 15.8796 36.0663 16.1847 36.1381C16.5974 36.2278 16.705 35.1333 17.1716 35.3307C17.4586 35.4563 17.2972 35.8869 17.2254 36.0843C17.1716 36.2278 16.9742 36.6226 17.1357 36.7302C17.3869 36.8917 17.4945 36.2458 17.5304 36.1202C17.5842 35.7972 17.7098 35.2589 17.351 35.0795C17.1536 34.9718 17.028 35.0795 16.8486 35.1512C16.6512 35.223 16.5974 35.1692 16.6691 34.9718C16.7409 34.7565 16.8665 34.5591 16.8665 34.3258C16.8845 34.2002 16.8486 33.967 16.705 34.1285ZM22.8775 34.6668C22.8595 35.1692 22.8416 35.6716 22.8236 36.156C22.8236 36.2996 22.8416 36.802 23.0748 36.5328C23.2722 36.2996 23.2543 35.9228 23.4516 35.6716C23.6849 35.3486 23.8284 35.6716 23.8284 35.9228C23.8284 36.0304 23.7926 36.4072 23.9361 36.4431C24.1335 36.497 24.1694 36.0663 24.1694 35.9587C24.1514 35.7254 24.0796 35.4383 23.9002 35.2948C23.667 35.1153 23.5055 35.2768 23.326 35.4024C22.9672 35.6716 23.1646 34.7206 23.1646 34.5591C23.1646 34.4694 23.1107 34.2182 22.9492 34.3258C22.8416 34.3976 22.8954 34.577 22.8775 34.6668ZM25.2998 34.3438C25.2998 34.3976 25.0845 34.4694 25.0306 34.4873C24.8871 34.595 24.8153 34.7924 24.8871 34.9718C24.9947 35.2589 25.3716 35.2409 25.6228 35.2768C25.7304 35.2948 25.8919 35.3307 25.9457 35.4383C25.9996 35.5998 25.8022 35.7613 25.6766 35.8331C25.5151 35.9407 25.3716 35.9228 25.1921 35.8331C25.0845 35.7792 24.8333 35.6716 24.8153 35.8869C24.7974 36.0484 25.0486 36.156 25.1742 36.1919C25.3536 36.2458 25.551 36.2099 25.7304 36.1381C25.9996 35.9946 26.3405 35.6357 26.2328 35.2948C26.1431 35.0256 25.7842 35.0436 25.551 35.0256C25.3536 35.0256 24.8691 34.9 25.2101 34.6668C25.3357 34.577 25.9278 34.6309 25.856 34.4335C25.8201 34.3258 25.2998 34.2541 25.2998 34.3438ZM21.0114 35.1512C21.0114 35.2589 20.7422 35.3307 20.7063 35.4742C20.6705 35.6716 20.7961 35.869 20.9575 35.9587C21.1729 36.0843 21.6753 36.0484 21.7291 36.3534C21.8009 36.6584 21.2985 36.7482 21.0832 36.6584C20.9217 36.5867 20.9396 36.3893 20.814 36.2996C20.6346 36.174 20.5628 36.3714 20.5987 36.5328C20.7243 37.1967 22.088 37.1429 22.0162 36.4072C21.9803 36.0484 21.6035 35.9407 21.3164 35.8151C21.1908 35.7613 20.7243 35.5101 21.0473 35.4024C21.1549 35.3665 21.8009 35.4921 21.6932 35.2589C21.6573 35.1333 21.0114 35.0615 21.0114 35.1512Z" fill="#0A0A0A"/>
</svg>
